<svg width="118" height="37" viewBox="0 0 118 37" fill="none" xmlns="http://www.w3.org/2000/svg">
<path d="M25.1659 0.264914C26.0167 0.264914 26.8716 0.264914 27.7259 0.259079C27.7165 3.28197 27.7566 6.30545 27.707 9.32835C27.6852 11.2794 26.8527 13.3589 25.0444 14.3268C23.0006 15.356 20.4093 15.3502 18.4057 14.2317C16.7 13.2445 15.871 11.2147 15.917 9.32193C15.9265 6.30195 15.92 3.28197 15.9235 0.261996H18.408C18.4145 2.87647 18.4021 5.48803 18.411 8.1025C18.4546 9.30384 18.4576 10.6114 19.188 11.6353C20.1698 12.972 22.2295 13.0981 23.613 12.3454C24.865 11.5986 25.1323 10.0413 25.157 8.71105C25.1783 5.89645 25.1594 3.07951 25.1659 0.264914ZM36.2567 0.320342C38.4091 -0.312126 40.811 0.0717893 42.7279 1.20545C42.7161 2.08997 42.7161 2.97157 42.7161 3.85376C41.1071 2.66759 38.9666 1.79532 36.9689 2.48614C36.1051 2.74169 35.5399 3.76974 35.9558 4.59709C36.2974 5.38942 37.2267 5.61989 37.9618 5.91512C39.546 6.53883 41.3726 6.87374 42.5473 8.19761C44.0571 10.0011 43.6748 13.2118 41.4629 14.3087C38.9743 15.5836 35.8644 15.1781 33.4784 13.8507C33.4755 12.9411 33.4755 12.035 33.466 11.1254C35.262 12.493 37.7536 13.304 39.9531 12.4714C41.1526 12.0414 41.3048 10.1959 40.2174 9.55881C38.53 8.54826 36.4579 8.3423 34.8396 7.19639C33.4171 6.18468 32.9976 4.17933 33.5882 2.59991C34.0289 1.454 35.095 0.658164 36.2567 0.320342ZM59.3541 0.0437833C62.7401 3.11627 66.0335 6.2932 69.3576 9.43279V0.261996H71.8426V15.0952C68.4531 11.9119 65.1573 8.63403 61.7489 5.46819V14.7714C60.9447 14.7773 60.1429 14.7773 59.3417 14.7802C59.3458 9.86921 59.321 4.95942 59.3541 0.0437833ZM78.371 0.259079C81.3694 0.259079 84.3642 0.274249 87.3591 0.249744C87.3774 0.99657 87.3774 1.74281 87.3774 2.48964C85.228 2.48964 83.081 2.48614 80.931 2.48964V5.93962C82.8479 5.94604 84.7619 5.93962 86.6788 5.94604V8.17018C84.7617 8.17291 82.8458 8.17291 80.931 8.17018C80.931 9.62883 80.931 11.0921 80.9375 12.5514C83.081 12.542 85.228 12.5514 87.3685 12.5449C87.3715 13.3134 87.3744 14.0841 87.3744 14.8525H78.3651C78.371 9.98882 78.3621 5.1257 78.371 0.259079ZM94.6597 0.830284C96.9897 -0.502917 99.9662 -0.0944961 102.252 1.13485C102.296 2.03804 102.296 2.94357 102.293 3.84734C100.634 2.61858 98.3992 1.73989 96.3625 2.54507C95.2067 2.95349 95.0727 4.67702 96.1229 5.27273C97.8339 6.24361 99.9255 6.43965 101.526 7.63224C103.676 9.21749 103.517 13.0549 101.059 14.2837C98.5709 15.5743 95.4303 15.1933 93.0502 13.8291C93.0502 12.9318 93.0502 12.035 93.0349 11.1376C94.7683 12.3629 96.9743 13.1961 99.1119 12.6249C99.9007 12.4283 100.625 11.7275 100.513 10.8675C100.528 10.21 100.062 9.63233 99.4783 9.36219C97.8003 8.50159 95.8203 8.25887 94.2992 7.09487C92.3139 5.5738 92.4449 2.08705 94.6597 0.830284ZM109.572 0.879878C111.883 -0.502917 114.909 -0.131254 117.192 1.13135C117.202 2.02579 117.202 2.91673 117.208 3.81059C115.565 2.58182 113.321 1.74923 111.312 2.56024C110.191 2.99024 110.063 4.66477 111.088 5.27273C112.84 6.28095 115.021 6.43965 116.624 7.72792C118.004 8.80323 118.28 10.7969 117.745 12.3699C117.245 13.7702 115.819 14.5871 114.418 14.8858C112.268 15.3251 109.972 14.9319 108.062 13.8694C108.03 12.9569 108.03 12.0443 108.027 11.1318C109.835 12.4592 112.299 13.3099 114.496 12.4738C115.691 12.0438 115.875 10.231 114.797 9.5734C113.063 8.501 110.876 8.34814 109.251 7.07562C107.335 5.55571 107.425 2.15882 109.572 0.879878ZM0 0.261996C2.60485 0.412529 5.31001 -0.116668 7.83049 0.695506C10.6295 1.58294 11.0271 5.9122 8.47359 7.31892C10.8006 8.2717 11.3345 11.5344 9.73796 13.3408C8.7562 14.496 7.15317 14.8029 5.70236 14.8461C3.80079 14.877 1.90275 14.8461 0.00118 14.8554V0.261996M2.4898 2.49256C2.48666 3.77072 2.48666 5.04868 2.4898 6.32646C3.82557 6.26228 5.21148 6.51083 6.51597 6.13917C8.09127 5.68757 8.10366 3.12211 6.5378 2.65534C5.21738 2.32335 3.83501 2.5509 2.4898 2.49256ZM2.4898 8.48058C2.4839 9.86279 2.48685 11.2456 2.4898 12.6231C4.02381 12.5158 5.67109 12.9213 7.1219 12.2853C8.56032 11.591 8.42993 9.22507 6.92307 8.69354C5.49409 8.25303 3.96245 8.57685 2.4898 8.48058ZM49.7866 0.261996H52.2741V14.8554H49.7866V0.261996ZM39.6026 22.92C41.9231 21.4666 45.0177 21.8698 47.3104 23.1814C47.298 24.0601 47.298 24.9388 47.301 25.8169C45.6236 24.6039 43.3185 23.6668 41.2989 24.5974C40.3018 25.0677 40.1714 26.5328 41.0688 27.1687C42.9084 28.324 45.3534 28.3794 46.9405 29.9588C48.0025 30.9507 48.1795 32.533 47.9069 33.8849C47.5901 35.2368 46.3971 36.2444 45.0826 36.6272C42.7816 37.3273 40.1991 36.9498 38.13 35.7607C38.1365 34.8605 38.1394 33.9608 38.13 33.0605C39.8793 34.3599 42.2559 35.214 44.4058 34.452C45.7038 34.1078 45.9622 32.1357 44.7876 31.4904C43.0512 30.418 40.8422 30.2832 39.2451 28.9559C37.4344 27.4424 37.5524 24.1855 39.6026 22.92ZM9.86541 22.3056H12.3475C12.3534 27.1168 12.3544 31.9299 12.3505 36.745H9.86541V22.3056ZM19.4152 21.9678C22.7209 25.0887 26.019 28.2225 29.3537 31.3136C29.3661 28.2843 29.3567 25.2579 29.3596 22.2321C30.1856 22.2286 31.0142 22.2274 31.8453 22.2286C31.8512 27.1536 31.8388 32.075 31.8512 37C28.4805 33.8406 25.1753 30.61 21.83 27.4225C21.8141 30.5289 21.83 33.6375 21.8235 36.7468H19.4157C19.4126 31.8189 19.4124 26.8926 19.4152 21.9678ZM54.3686 22.3056H56.8543V36.745H54.3686V22.3056ZM64.0027 22.3056C66.0036 22.3056 68.0064 22.3035 70.0113 22.2992C72.2881 22.2718 74.6398 23.4241 75.7526 25.4364C76.9485 27.5497 77.0258 30.1765 76.2836 32.4531C75.4882 34.8453 73.1206 36.5373 70.5983 36.6989C68.4017 36.8098 66.2022 36.7147 64.0027 36.745V22.3056ZM66.5627 24.5327V34.5145C68.3428 34.4503 70.2597 34.7852 71.9152 33.9619C73.5082 33.1503 74.2363 31.3072 74.1897 29.6111C74.2546 27.8969 73.6427 25.9738 72.0462 25.0951C70.3712 24.1703 68.3864 24.6499 66.5627 24.5327ZM81.8632 22.3056C84.8392 22.3029 87.8165 22.3029 90.7952 22.3056C90.7952 23.0489 90.7917 23.7923 90.7917 24.5362C88.6425 24.5299 86.4947 24.5299 84.3483 24.5362V27.9091C86.2623 27.9126 88.1782 27.9138 90.0961 27.9126V30.0633C88.1792 30.0633 86.2611 30.0598 84.3483 30.0633V34.5116C86.4953 34.518 88.6453 34.5116 90.7952 34.5151V36.7421H81.8632V22.3056ZM98.0988 22.3027C100.115 22.3208 102.132 22.284 104.145 22.3149C105.856 22.3575 107.665 23.3319 108.157 25.0397C108.598 26.524 108.492 28.2843 107.529 29.5527C106.939 30.3112 105.982 30.5977 105.087 30.8404C106.833 32.7907 108.565 34.755 110.285 36.7334C109.301 36.752 108.322 36.752 107.346 36.7334C105.68 34.7764 103.983 32.8469 102.31 30.9023C101.757 30.9058 101.207 30.9058 100.658 30.9058C100.652 32.8504 100.655 34.7951 100.655 36.7404C99.8004 36.7431 98.9461 36.7431 98.0918 36.7404V22.298M100.655 24.4568C100.649 25.8886 100.652 27.3204 100.655 28.7517C101.982 28.6781 103.369 28.9576 104.653 28.5492C106.241 27.9191 106.275 25.3985 104.712 24.727C103.427 24.2409 102.007 24.5268 100.662 24.4592" fill="white"/>
</svg>
